{"title":"The Great Gatsby [2013] BRRip XviD - CODY","uid":8802136,"size":1079356149,"categoryP":"video","categoryS":"movies","magnet":"?xt=urn:btih:e743434118fb7aa21e32f174c05ed8804270b19a&amp;dn=The+Great+Gatsby+%5B2013%5D+BRRip+XviD+-+CODY&amp;tr=udp%3A%2F%2Ftracker.openbittorrent.com%3A80&amp;tr=udp%3A%2F%2Fopen.demonii.com%3A1337&amp;tr=udp%3A%2F%2Ftracker.coppersurfer.tk%3A6969&amp;tr=udp%3A%2F%2Fexodus.desync.com%3A6969","seeders":1,"leechers":0,"uploader":"CODYBOSS1969","files":5,"time":1376235156,"description":"General\nComplete name                            : The Great Gatsby [2013] BRRip XviD - CODY.avi\nFormat                                   : AVI\nFormat/Info                              : Audio Video Interleave\nFile size                                : 1.00 GiB\nDuration                                 : 2h 22mn\nOverall bit rate                         : 1 011 Kbps\nWriting application                      : VirtualDubMod 1.5.10.3 | www.virtualdub-fr.org || (build 2550/release)\nWriting library                          : VirtualDubMod build 2550/release\n\nVideo\nID                                       : 0\nFormat                                   : MPEG-4 Visual\nFormat profile                           : Advanced Simple@L5\nFormat settings, BVOP                    : 4\nFormat settings, QPel                    : No\nFormat settings, GMC                     : No warppoints\nFormat settings, Matrix                  : Default (H.263)\nCodec ID                                 : XVID\nCodec ID/Hint                            : XviD\nDuration                                 : 2h 22mn\nBit rate                                 : 874 Kbps\nWidth                                    : 720 pixels\nHeight                                   : 296 pixels\nDisplay aspect ratio                     : 2.40:1\nFrame rate                               : 23.976 fps\nColor space                              : YUV\nChroma subsampling                       : 4:2:0\nBit depth                                : 8 bits\nScan type                                : Progressive\nCompression mode                         : Lossy\nBits/(Pixel*Frame)                       : 0.171\nStream size                              : 888 MiB (86%)\nWriting library                          : XviD 73\n\nAudio\nID                                       : 1\nFormat                                   : MPEG Audio\nFormat version                           : Version 1\nFormat profile                           : Layer 3\nCodec ID                                 : 55\nCodec ID/Hint                            : MP3\nDuration                                 : 2h 22mn\nBit rate mode                            : Constant\nBit rate                                 : 128 Kbps\nChannel(s)                               : 2 channels\nSampling rate                            : 48.0 KHz\nCompression mode                         : Lossy\nStream size                              : 130 MiB (13%)\nAlignment                                : Aligned on interleaves\nInterleave, duration                     : 42 ms (1.00 video frame)\nInterleave, preload duration             : 504 ms\nWriting library                          : LAME3.99r\nEncoding settings                        : -m s -V 4 -q 2 -lowpass 17 -b 128\n\nAudio language                           : English\n\nIMDB link:                                &lt;a href=&quot; http://www.imdb.com/title/tt1343092/&quot; rel=&quot;nofollow&quot; target=&quot;_NEW&quot;&gt; http://www.imdb.com/title/tt1343092/&lt;/a&gt;\n\nSubtitles included                       : Romanian\n\n\nPlease seed at least 1,5:1 . This way this torrent has a chance to survive !\n\n\nThanks . Enjoy !! \t\t\t\t\n\t\t                      \n                       ","torrent":{"xt":"urn:btih:e743434118fb7aa21e32f174c05ed8804270b19a","amp;dn":"The+Great+Gatsby+%5B2013%5D+BRRip+XviD+-+CODY","amp;tr":["udp%3A%2F%2Ftracker.openbittorrent.com%3A80","udp%3A%2F%2Fopen.demonii.com%3A1337","udp%3A%2F%2Ftracker.coppersurfer.tk%3A6969","udp%3A%2F%2Fexodus.desync.com%3A6969"],"infoHash":"e743434118fb7aa21e32f174c05ed8804270b19a","infoHashBuffer":{"type":"Buffer","data":[231,67,67,65,24,251,122,162,30,50,241,116,192,94,216,128,66,112,177,154]},"announce":[],"urlList":[]}}